<svg width="79" height="79" viewBox="0 0 79 79" fill="none" xmlns="http://www.w3.org/2000/svg">
<g clip-path="url(#clip0_27_2)">
<path d="M39.5 0C49.9761 0 60.023 4.1616 67.4307 11.5693C74.8384 18.977 79 29.0239 79 39.5C79 49.9761 74.8384 60.023 67.4307 67.4307C60.023 74.8384 49.9761 79 39.5 79C29.0239 79 18.977 74.8384 11.5693 67.4307C4.1616 60.023 0 49.9761 0 39.5C0 29.0239 4.1616 18.977 11.5693 11.5693C18.977 4.1616 29.0239 0 39.5 0ZM22.2188 37.0312C21.564 37.0312 20.9361 37.2914 20.4731 37.7543C20.0101 38.2173 19.75 38.8452 19.75 39.5C19.75 40.1548 20.0101 40.7827 20.4731 41.2457C20.9361 41.7087 21.564 41.9688 22.2188 41.9688H50.8217L40.2209 52.5646C39.9913 52.7942 39.8093 53.0667 39.685 53.3666C39.5608 53.6665 39.4969 53.9879 39.4969 54.3125C39.4969 54.6371 39.5608 54.9585 39.685 55.2584C39.8093 55.5583 39.9913 55.8308 40.2209 56.0604C40.4504 56.2899 40.7229 56.472 41.0228 56.5962C41.3227 56.7204 41.6441 56.7844 41.9688 56.7844C42.2934 56.7844 42.6148 56.7204 42.9147 56.5962C43.2146 56.472 43.4871 56.2899 43.7166 56.0604L58.5291 41.2479C58.759 41.0186 58.9414 40.7461 59.0659 40.4462C59.1903 40.1463 59.2544 39.8247 59.2544 39.5C59.2544 39.1753 59.1903 38.8537 59.0659 38.5538C58.9414 38.2539 58.759 37.9814 58.5291 37.7521L43.7166 22.9396C43.4871 22.7101 43.2146 22.528 42.9147 22.4038C42.6148 22.2796 42.2934 22.2156 41.9688 22.2156C41.6441 22.2156 41.3227 22.2796 41.0228 22.4038C40.7229 22.528 40.4504 22.7101 40.2209 22.9396C39.9913 23.1692 39.8093 23.4417 39.685 23.7416C39.5608 24.0415 39.4969 24.3629 39.4969 24.6875C39.4969 25.0121 39.5608 25.3335 39.685 25.6334C39.8093 25.9333 39.9913 26.2058 40.2209 26.4354L50.8217 37.0312H22.2188Z" fill="white"/>
</g>
<defs>
<clipPath id="clip0_27_2">
<rect width="79" height="79" fill="white"/>
</clipPath>
</defs>
</svg>
