<svg width="79" height="79" viewBox="0 0 79 79" fill="none" xmlns="http://www.w3.org/2000/svg">
<g clip-path="url(#clip0_58_134)">
<path d="M79 39.5C79 49.9761 74.8384 60.023 67.4307 67.4307C60.023 74.8384 49.9761 79 39.5 79C29.0239 79 18.977 74.8384 11.5693 67.4307C4.16159 60.023 0 49.9761 0 39.5C0 29.0239 4.16159 18.977 11.5693 11.5693C18.977 4.1616 29.0239 0 39.5 0C49.9761 0 60.023 4.1616 67.4307 11.5693C74.8384 18.977 79 29.0239 79 39.5ZM41.9688 22.2188C41.9688 21.564 41.7086 20.9361 41.2457 20.4731C40.7827 20.0101 40.1548 19.75 39.5 19.75C38.8452 19.75 38.2173 20.0101 37.7543 20.4731C37.2913 20.9361 37.0312 21.564 37.0312 22.2188V50.8217L26.4354 40.2209C26.2058 39.9913 25.9333 39.8093 25.6334 39.685C25.3335 39.5608 25.0121 39.4969 24.6875 39.4969C24.3629 39.4969 24.0415 39.5608 23.7416 39.685C23.4417 39.8093 23.1692 39.9913 22.9396 40.2209C22.7101 40.4504 22.528 40.7229 22.4038 41.0228C22.2796 41.3227 22.2156 41.6441 22.2156 41.9688C22.2156 42.2934 22.2796 42.6148 22.4038 42.9147C22.528 43.2146 22.7101 43.4871 22.9396 43.7166L37.7521 58.5291C37.9814 58.759 38.2539 58.9414 38.5538 59.0659C38.8537 59.1903 39.1753 59.2544 39.5 59.2544C39.8247 59.2544 40.1463 59.1903 40.4462 59.0659C40.7461 58.9414 41.0186 58.759 41.2479 58.5291L56.0604 43.7166C56.2899 43.4871 56.472 43.2146 56.5962 42.9147C56.7204 42.6148 56.7844 42.2934 56.7844 41.9688C56.7844 41.6441 56.7204 41.3227 56.5962 41.0228C56.472 40.7229 56.2899 40.4504 56.0604 40.2209C55.8308 39.9913 55.5583 39.8093 55.2584 39.685C54.9585 39.5608 54.6371 39.4969 54.3125 39.4969C53.9879 39.4969 53.6665 39.5608 53.3666 39.685C53.0667 39.8093 52.7942 39.9913 52.5646 40.2209L41.9688 50.8217V22.2188Z" fill="white"/>
</g>
<defs>
<clipPath id="clip0_58_134">
<rect width="79" height="79" fill="white" transform="matrix(0 1 -1 0 79 0)"/>
</clipPath>
</defs>
</svg>
