<svg width="50" height="50" viewBox="0 0 50 50" fill="none" xmlns="http://www.w3.org/2000/svg">
<path d="M36.2015 0H13.7979C6.18974 0 0 6.19004 0 13.7982V36.2018C0 43.8103 6.18974 50 13.7979 50H36.2015C43.8103 50 50 43.81 50 36.2018V13.7982C50.0003 6.19004 43.8103 0 36.2015 0ZM45.5641 36.2018C45.5641 41.3641 41.3641 45.5638 36.2018 45.5638H13.7979C8.63588 45.5641 4.43624 41.3641 4.43624 36.2018V13.7982C4.43624 8.63618 8.63588 4.43624 13.7979 4.43624H36.2015C41.3638 4.43624 45.5638 8.63618 45.5638 13.7982V36.2018H45.5641Z" fill="white"/>
<path d="M24.9999 12.1167C17.8957 12.1167 12.1162 17.8962 12.1162 25.0004C12.1162 32.1043 17.8957 37.8836 24.9999 37.8836C32.1041 37.8836 37.8837 32.1043 37.8837 25.0004C37.8837 17.8962 32.1041 12.1167 24.9999 12.1167ZM24.9999 33.447C20.3422 33.447 16.5525 29.6579 16.5525 25.0001C16.5525 20.3421 20.3419 16.5526 24.9999 16.5526C29.658 16.5526 33.4474 20.3421 33.4474 25.0001C33.4474 29.6579 29.6577 33.447 24.9999 33.447Z" fill="white"/>
<path d="M38.4241 8.35547C37.5694 8.35547 36.7298 8.7015 36.1262 9.30778C35.5196 9.91111 35.1709 10.751 35.1709 11.6087C35.1709 12.4637 35.5199 13.3034 36.1262 13.9096C36.7295 14.513 37.5694 14.862 38.4241 14.862C39.2818 14.862 40.1188 14.513 40.7251 13.9096C41.3314 13.3034 41.6774 12.4634 41.6774 11.6087C41.6774 10.751 41.3314 9.91111 40.7251 9.30778C40.1217 8.7015 39.2818 8.35547 38.4241 8.35547Z" fill="white"/>
</svg>
