<svg width="503" height="146" viewBox="0 0 503 146" fill="none" xmlns="http://www.w3.org/2000/svg">
<path d="M502.404 145.703H0.596405V0.445312H502.42V145.703H502.404ZM10.4364 136.551H492.58V9.59731H10.4364V136.551Z" fill="white"/>
<path d="M411.302 60.4519C412.22 63.2738 413.089 65.9889 413.958 68.6277C415.254 72.2732 416.451 75.2781 417.501 77.4746C419.059 80.6778 419.42 81.6235 419.567 82.0964C419.912 83.0879 420.174 83.8353 420.322 84.2166C420.6 84.9335 420.732 85.9402 420.732 87.6638C420.732 88.1825 420.715 89.2197 420.682 90.7755C420.65 92.2856 420.617 94.0397 420.568 96.0379L420.453 101.91C420.42 103.634 420.404 105.129 420.404 106.395H447.218C447.185 105.51 447.185 104.626 447.218 103.741C447.25 101.987 447.316 100.248 447.382 98.509L447.611 94.3906C447.677 93.0635 447.726 91.7365 447.726 90.44C447.726 89.2502 447.742 88.2282 447.775 87.3741C447.824 86.3826 447.972 85.2843 448.251 84.0031C448.333 83.4692 448.677 82.5387 449.924 80.0677C450.776 78.3441 451.842 76.1628 453.072 73.5393C454.302 70.9615 455.467 68.1548 456.582 65.1804C457.336 63.2128 458.107 60.9858 458.878 58.5605C459.665 56.0895 460.403 53.6337 461.092 51.2694C461.748 48.9814 462.306 47.029 462.781 45.4426H441.297C441.297 45.5494 441.264 45.6562 441.248 45.763C441.068 47.1053 440.871 48.6916 440.641 50.5067C440.412 52.3524 440.149 54.137 439.87 55.8912C439.592 57.7368 439.264 59.1859 438.903 60.3299C437.837 63.5941 435.147 63.8381 434.344 63.8381C431.834 63.8381 429.965 62.2976 429.571 59.918C429.178 57.0962 428.817 54.2743 428.522 51.483C428.308 49.4848 428.128 47.4713 427.98 45.4426H408.3C408.333 47.212 408.382 48.9967 408.464 50.766C408.612 51.2999 408.76 51.8338 408.924 52.3981C409.645 54.9607 410.465 57.6606 411.351 60.4214L411.302 60.4519Z" fill="white"/>
<path d="M408.251 45.4732H427.931C428.079 47.4866 428.259 49.5153 428.472 51.5135C428.768 54.3049 429.128 57.1267 429.522 59.9486C429.916 62.3281 431.785 63.8687 434.294 63.8687C435.098 63.8687 437.804 63.6094 438.854 60.3604C439.214 59.2164 439.542 57.7674 439.821 55.9217C440.1 54.1676 440.362 52.3829 440.592 50.5373C440.805 48.7374 441.018 47.1358 441.199 45.7935C441.199 45.6867 441.232 45.58 441.248 45.4732H462.732C462.256 47.0595 461.699 48.9967 461.043 51.2999C460.37 53.6642 459.616 56.12 458.829 58.591C458.058 61.0163 457.287 63.2433 456.533 65.211C455.418 68.1854 454.237 70.992 453.023 73.5698C451.793 76.1934 450.744 78.3746 449.874 80.0983C448.628 82.5693 448.3 83.4997 448.202 84.0336C447.923 85.3149 447.775 86.4131 447.726 87.4046C447.693 88.2588 447.677 89.2808 447.677 90.4705C447.677 91.7671 447.644 93.0941 447.562 94.4211L447.332 98.5395C447.267 100.278 447.201 102.017 447.168 103.771C447.152 104.656 447.168 105.541 447.168 106.425H420.354C420.354 105.159 420.371 103.665 420.404 101.941L420.518 96.0685C420.551 94.0856 420.584 92.3314 420.633 90.8061C420.666 89.2503 420.682 88.213 420.682 87.6944C420.682 85.9708 420.568 84.9641 420.272 84.2472C420.125 83.8658 419.862 83.1184 419.518 82.1269C419.37 81.6388 419.01 80.7084 417.452 77.5052C416.402 75.3087 415.205 72.3038 413.909 68.6583C413.056 66.0347 412.171 63.3043 411.252 60.4825C410.367 57.7216 409.547 55.0065 408.825 52.4592C408.661 51.8948 408.514 51.361 408.366 50.8271C408.366 50.9339 408.366 51.0407 408.366 51.1474C408.514 54.0913 408.514 57.0657 408.366 59.9791L408.268 61.6722C409.104 64.3416 409.957 67.0109 410.81 69.4819C413.45 77.2001 416.041 81.9744 416.369 82.9201C417.156 85.2539 417.435 85.1929 417.402 87.7249C417.386 90.1349 417.042 108.18 417.025 109.034C417.025 109.263 417.156 109.43 417.353 109.43H450.137C450.317 109.43 450.465 109.232 450.465 108.988C450.268 105.556 450.35 102.078 450.498 98.631C450.612 95.9312 450.826 93.2161 450.826 90.5163C450.826 88.2435 450.826 86.9012 451.252 84.6743C451.514 83.3472 456.041 75.4307 459.567 66.2482C462.683 58.1487 466.307 44.2529 466.766 43.0937C466.865 42.8344 466.717 42.514 466.488 42.514H438.706C438.575 42.514 438.444 42.6361 438.411 42.8039C438.05 44.2377 436.869 55.5404 435.721 59.5063C435.475 60.3604 434.95 60.9706 434.196 60.9706C433.54 60.9706 432.818 60.3604 432.671 59.5063C431.785 54.0303 431.244 48.4781 430.916 42.9106C430.916 42.6971 430.768 42.5446 430.588 42.5446H408.087C408.087 42.5446 408.12 42.6666 408.12 42.7428C408.12 43.6733 408.136 44.6037 408.153 45.5342L408.251 45.4732Z" fill="white"/>
<path d="M346.292 52.3066C346.259 55.9064 346.243 59.8113 346.243 64.0212C346.243 64.7839 346.243 65.5465 346.243 66.3092H348.014C349.523 66.3092 350.654 66.355 351.458 66.4312C352.491 66.5227 353.574 66.7363 354.623 67.0719C355.771 67.4227 356.886 68.0176 357.903 68.826L358.067 68.9785C359.543 70.3513 360.281 72.075 360.216 73.9816C360.183 74.8663 360.232 75.7815 360.363 76.6967C360.429 77.2001 360.494 78.1305 360.445 80.9829C360.412 82.9659 360.347 85.3301 360.281 88.0757C360.216 90.8061 360.117 93.5517 360.035 96.3278C359.97 99.0734 359.904 101.544 359.871 103.741C359.855 104.793 359.838 105.693 359.822 106.441H387.259C387.259 106.136 387.259 105.8 387.259 105.403V82.5693C387.259 79.8847 387.292 77.5357 387.374 75.5985C387.472 72.9139 387.554 72.0445 387.62 71.6021L387.669 71.3276C387.948 70.1683 388.407 69.2531 389.08 68.5362C389.588 68.0176 390.047 67.621 390.506 67.3312C391.589 66.6905 392.934 66.416 395.098 66.355C396.591 66.3245 398.214 66.3245 399.887 66.355C400.543 66.355 401.166 66.355 401.74 66.355C401.74 65.5008 401.74 64.6313 401.806 63.7772L402.036 59.674C402.183 57.0352 402.167 54.3506 402.036 51.6813C401.576 50.0491 401.15 48.6001 400.789 47.3341C400.576 46.6019 400.412 46.007 400.264 45.4884H346.587C346.44 47.3036 346.358 49.5763 346.325 52.3219L346.292 52.3066Z" fill="white"/>
<path d="M402.019 51.666C402.019 51.5745 402.019 51.4982 402.019 51.4067C401.921 49.439 401.855 47.4408 401.822 45.4731H400.264C400.412 45.9918 400.576 46.5866 400.789 47.3188C401.166 48.5848 401.576 50.0339 402.036 51.666H402.019Z" fill="white"/>
<path d="M402.019 51.666C402.15 54.3353 402.15 57.0199 402.019 59.6588L401.79 63.7619C401.74 64.6161 401.724 65.5008 401.724 66.3397C401.15 66.3397 400.527 66.355 399.871 66.3397C398.182 66.3092 396.574 66.3092 395.082 66.3397C392.934 66.3855 391.572 66.6753 390.49 67.3159C390.031 67.6057 389.572 67.9871 389.063 68.5209C388.391 69.2378 387.915 70.1378 387.653 71.3123L387.604 71.5869C387.538 72.0445 387.456 72.8986 387.358 75.5832C387.276 77.5204 387.243 79.8542 387.243 82.554V105.388C387.243 105.77 387.243 106.12 387.243 106.425H359.806C359.806 105.678 359.822 104.778 359.855 103.726C359.888 101.529 359.953 99.0581 360.019 96.3125C360.117 93.5364 360.199 90.7908 360.265 88.0605C360.347 85.3149 360.396 82.9506 360.429 80.9676C360.478 78.1305 360.429 77.2001 360.347 76.6815C360.216 75.7663 360.166 74.8511 360.199 73.9664C360.265 72.0597 359.527 70.3361 358.051 68.9633L357.887 68.8108C356.87 68.0023 355.755 67.3922 354.607 67.0566C353.557 66.721 352.475 66.4922 351.442 66.416C350.622 66.3397 349.506 66.2939 347.998 66.2939H346.226C346.226 67.2854 346.226 68.2921 346.226 69.2683C348.047 69.2683 350.08 69.2683 351.081 69.3446C352.803 69.4819 354.459 69.8785 355.82 71.1292C357.395 72.5936 356.903 74.8816 357.116 77.0475C357.411 79.8847 356.46 103.817 356.608 108.317C356.624 108.897 357.067 109.369 357.592 109.369H389.506C390.047 109.369 390.506 108.866 390.49 108.256C390.457 106.624 390.211 75.507 390.802 71.9072C391.015 70.6259 391.851 70.0158 392.228 69.7717C393.672 68.8718 400.445 69.6192 404.069 69.1921C404.578 69.1311 404.955 68.643 404.955 68.0633C404.873 66.0804 404.988 64.0822 405.102 62.1145C404.2 59.2927 403.364 56.5471 402.626 53.9235C402.396 53.1303 402.183 52.3677 401.986 51.6508L402.019 51.666Z" fill="white"/>
<path d="M346.702 44.0699C346.653 44.497 346.604 44.9851 346.571 45.4884H400.248C400.018 44.6647 399.854 44.0851 399.772 43.7953L399.723 43.5818C399.641 43.1699 399.641 42.8191 399.674 42.4835H346.538C346.653 42.8801 346.735 43.3072 346.735 43.7495V44.0699H346.702Z" fill="white"/>
<path d="M403.184 42.4835H404.791H404.742H399.658C399.625 42.8191 399.625 43.1699 399.707 43.5818L399.756 43.7953C399.838 44.1004 400.018 44.68 400.232 45.4732H401.79C401.822 47.4561 401.888 49.4391 401.986 51.4067C401.986 51.4983 401.986 51.5745 401.986 51.666C402.2 52.3982 402.396 53.1456 402.626 53.9388C403.364 56.5471 404.2 59.308 405.102 62.1298C405.135 61.3672 405.184 60.6045 405.217 59.8723C405.332 56.9742 405.266 54.0761 405.168 51.1627C403.971 47.0595 403.102 43.9173 402.856 43.0326C402.774 42.7733 402.938 42.4835 403.151 42.4835H403.184Z" fill="white"/>
<path d="M404.791 42.4835H403.184C402.97 42.4835 402.806 42.7581 402.888 43.0326C403.134 43.9173 404.004 47.0595 405.201 51.1627C405.102 48.3408 404.988 45.5189 404.971 42.6818C404.971 42.5293 404.856 42.4988 404.791 42.4835Z" fill="white"/>
<path d="M313.328 47.5323C313.377 49.7898 313.426 52.4439 313.459 55.4641L313.689 73.7223C313.722 76.5137 313.738 78.7559 313.738 80.4643C313.804 81.7761 313.869 83.9115 313.902 86.6571C313.935 89.3875 313.951 92.3161 313.951 95.4278C313.951 98.5395 313.918 101.361 313.836 103.848C313.804 104.809 313.771 105.663 313.738 106.41H340.88C340.732 104.565 340.601 102.719 340.486 100.889C340.339 98.4327 340.257 95.9159 340.257 93.4449C340.158 92.1483 340.093 90.0281 340.06 86.9774C340.027 83.9268 339.962 80.4185 339.896 76.4221C339.863 74.7443 339.847 73.0359 339.83 71.3123C338.945 70.5801 338.387 69.4971 338.387 68.2158V66.782C338.387 65.8363 338.371 64.7991 338.338 63.6704C338.305 62.5721 338.256 61.7332 338.19 61.1688C338.092 60.0706 337.994 58.6215 337.928 56.6691C337.846 54.7624 337.813 52.749 337.813 50.6898V45.4426H313.295C313.295 46.0528 313.312 46.7239 313.328 47.5018V47.5323Z" fill="white"/>
<path d="M337.928 56.6996C338.01 58.652 338.092 60.1011 338.19 61.1993C338.256 61.7637 338.305 62.6026 338.338 63.7009C338.371 64.8296 338.387 65.8668 338.387 66.8126V68.2464C338.387 69.5429 338.945 70.6259 339.83 71.3428C339.798 68.9328 339.781 66.4922 339.781 64.0365C339.781 59.796 339.798 55.8759 339.83 52.2609C339.863 49.5763 339.945 47.3493 340.076 45.4884H337.78V50.7356C337.78 52.7948 337.813 54.8082 337.895 56.7149L337.928 56.6996Z" fill="white"/>
<path d="M339.847 71.3276C339.863 73.0512 339.88 74.7596 339.912 76.4374C339.994 80.4338 340.044 83.9573 340.076 86.9928C340.109 90.0282 340.175 92.1484 340.273 93.4602C340.273 95.9312 340.355 98.448 340.503 100.904C340.618 102.734 340.749 104.565 340.896 106.425H313.754C313.787 105.678 313.836 104.824 313.853 103.863C313.918 101.377 313.968 98.5395 313.968 95.4431C313.968 92.3467 313.951 89.4028 313.918 86.6724C313.886 83.9268 313.82 81.7914 313.754 80.4796C313.754 78.7712 313.738 76.529 313.705 73.7376L313.476 55.4794C313.443 52.4592 313.394 49.8051 313.344 47.5476C313.344 46.785 313.328 46.0986 313.312 45.4884H337.83V43.1241C337.83 42.9106 337.846 42.7123 337.895 42.4988H310.54C310.409 42.6361 310.31 42.7276 310.196 42.8343V43.0174C310.196 45.885 310.179 48.7374 310.163 51.605C310.278 60.9095 310.474 74.6833 310.589 80.4491C310.688 86.108 311.032 105.175 310.278 108.942C310.228 109.186 310.425 109.415 310.688 109.415H343.061C343.783 109.415 344.357 108.836 344.291 108.164C343.881 103.222 343.553 98.2802 343.422 93.3229C343.34 90.5925 343.16 81.8829 343.078 72.3038H342.651C341.536 72.3038 340.585 71.9377 339.847 71.3428V71.3276ZM313.492 109.324C313.492 109.324 313.492 109.232 313.508 109.202C313.508 109.247 313.508 109.293 313.492 109.324Z" fill="white"/>
<path d="M341.634 68.2311C341.634 68.1396 341.569 62.8467 341.388 60.9248C341.011 56.9284 341.06 43.7038 341.06 43.1241C341.06 42.5445 341.52 42.4683 342.044 42.4683H337.895C337.862 42.6666 337.83 42.8801 337.83 43.0937V45.4579H340.126C339.994 47.3188 339.912 49.5458 339.88 52.2304C339.847 55.8454 339.83 59.7655 339.83 64.006C339.83 66.477 339.847 68.9023 339.88 71.3123C340.618 71.9072 341.569 72.2733 342.684 72.2733H343.11C343.11 71.2971 343.094 70.2903 343.094 69.2989C342.815 69.2989 342.651 69.2989 342.651 69.2989C342.11 69.2989 341.667 68.8108 341.667 68.2159L341.634 68.2311Z" fill="white"/>
<path d="M343.422 43.719C343.471 43.0479 342.897 42.4835 342.176 42.4835H342.028C341.503 42.4835 341.044 42.5751 341.044 43.1394C341.044 43.7038 340.995 56.9437 341.372 60.9401C341.552 62.862 341.618 68.1396 341.618 68.2312C341.618 68.8413 342.061 69.3294 342.602 69.3294C342.602 69.3294 342.766 69.3294 343.045 69.3294C342.979 59.2469 343.028 48.8137 343.422 43.7343V43.719Z" fill="white"/>
<path d="M247.17 64.0212C247.17 68.2006 247.203 72.3343 247.285 76.3306C247.367 80.3423 247.416 83.8658 247.449 86.9165C247.482 89.8909 247.548 91.9806 247.63 93.1245V93.3381C247.63 95.7481 247.712 98.1734 247.859 100.553C247.974 102.46 248.138 104.397 248.302 106.319L265.67 106.38C265.62 104.854 265.555 103.192 265.489 101.407C265.374 98.448 265.391 95.7634 265.538 93.4296C265.571 91.4772 266.555 89.8451 268.261 88.9604C269.36 88.3655 270.606 88.213 271.754 88.5485C272.558 88.7926 273.656 89.3722 274.378 90.7908C275.378 92.5144 276.084 94.6651 276.543 97.3802C276.936 99.5462 277.445 101.453 278.068 103.039C278.412 104.015 278.708 104.915 278.986 105.831C279.052 106.014 279.118 106.212 279.183 106.395H303.439V106.242C303.439 104.641 303.455 102.658 303.488 100.294C303.521 97.9751 303.537 95.4888 303.537 92.8348C303.537 90.1807 303.554 87.5876 303.586 85.1318C303.619 82.7065 303.636 80.6473 303.636 78.9695C303.636 72.9902 303.652 66.9956 303.685 61.001C303.718 55.8302 303.734 50.6593 303.734 45.4579H282.824V48.3103C282.824 50.522 282.808 52.7032 282.775 54.8539C282.742 57.0504 282.644 58.9571 282.48 60.5129C282.266 63.5331 280.282 64.5856 279.265 64.9364C277.658 65.5313 276.395 65.2567 275.608 64.9212C274.837 64.5856 273.804 63.8534 273.263 62.3281C272.525 60.6197 271.869 58.53 271.311 56.1352C270.786 53.7862 270.278 51.4677 269.819 49.1339C269.556 47.7917 269.278 46.5561 268.982 45.4732H247.498C247.351 47.273 247.252 49.561 247.236 52.3066C247.203 55.9064 247.187 59.8113 247.187 64.0212H247.17Z" fill="white"/>
<path d="M279.79 42.4835C279.659 42.4835 279.56 42.6055 279.56 42.7581C279.577 47.3951 279.757 55.8302 279.314 60.2689C279.216 61.1688 278.872 61.9468 278.101 62.2061C277.428 62.4349 276.559 62.084 276.231 61.2756C274.312 56.5776 273.033 47.5781 271.426 42.636C271.393 42.5293 271.311 42.4683 271.213 42.4683L247.433 42.4377C247.548 42.8496 247.646 43.2767 247.646 43.7495V44.0699C247.58 44.497 247.531 44.9698 247.498 45.4732H268.982C269.278 46.5714 269.556 47.7917 269.819 49.134C270.294 51.4525 270.786 53.7862 271.311 56.1352C271.869 58.5453 272.541 60.6197 273.263 62.3281C273.804 63.8534 274.837 64.5856 275.608 64.9212C276.395 65.2567 277.658 65.5465 279.265 64.9364C280.266 64.6008 282.266 63.5331 282.48 60.513C282.627 58.9571 282.726 57.0657 282.775 54.854C282.808 52.7032 282.824 50.522 282.824 48.3103V45.4579H303.734C303.734 50.644 303.718 55.8302 303.685 61.001C303.652 66.9956 303.636 72.9902 303.636 78.9695C303.636 80.6473 303.619 82.7066 303.586 85.1318C303.554 87.5876 303.537 90.1502 303.537 92.8348C303.537 95.5194 303.521 97.9751 303.488 100.294C303.455 102.643 303.439 104.626 303.439 106.242V106.395H279.183C279.118 106.197 279.052 106.014 278.986 105.831C278.708 104.931 278.429 104.031 278.068 103.039C277.445 101.453 276.936 99.531 276.543 97.3803C276.084 94.6804 275.362 92.5144 274.378 90.7908C273.656 89.3722 272.558 88.7774 271.754 88.5486C270.606 88.213 269.36 88.3655 268.261 88.9604C266.555 89.8604 265.571 91.4772 265.538 93.4297C265.391 95.7634 265.374 98.448 265.489 101.407C265.555 103.192 265.62 104.854 265.67 106.38L248.302 106.319C248.351 106.837 248.368 107.341 248.417 107.875C248.466 108.439 248.4 108.927 248.286 109.354L268.72 109.385C268.851 109.385 268.95 109.263 268.95 109.11C268.868 104.519 268.474 98.0514 268.704 93.5517C268.802 91.7518 270.688 90.6688 271.524 92.1331C273.132 94.9245 273.738 100.461 275.034 104.061C275.657 105.754 276.198 107.478 276.723 109.217C276.756 109.324 276.838 109.4 276.936 109.4H306.456C306.588 109.4 306.702 109.263 306.686 109.095C306.571 107.646 306.817 87.4961 306.817 79C306.817 69.0701 306.916 59.1554 306.948 49.2407C306.948 48.6916 306.932 48.1425 306.916 47.6391C306.883 45.3206 306.866 43.7495 306.866 42.8953V42.5445C306.866 42.5445 306.801 42.4835 306.768 42.4835H279.806H279.79Z" fill="white"/>
<path d="M306.899 47.6392C306.899 48.1578 306.932 48.6916 306.932 49.2408C306.932 47.1663 306.948 45.1071 306.948 43.0326C306.948 42.9411 306.948 42.8649 306.948 42.7733C306.948 42.6666 306.899 42.5751 306.817 42.514V42.8649C306.817 43.719 306.834 45.2901 306.866 47.6086L306.899 47.6392Z" fill="white"/>
<path d="M215.896 49.7899C215.83 51.6203 215.781 53.4506 215.781 55.2353C215.781 55.8454 215.797 56.5928 215.83 57.4623C215.863 58.3622 215.896 59.1707 215.945 59.8723L215.994 60.94V64.6161C215.994 65.8211 215.436 66.8431 214.534 67.499L214.567 70.8394C214.567 70.8394 214.649 70.8852 214.682 70.9005C215.535 71.5716 215.994 72.5478 215.994 73.6461V75.6137C215.994 76.9255 215.978 78.4814 215.945 80.2508C215.912 81.9286 215.912 83.454 215.945 84.7963C215.978 86.2301 215.994 87.008 215.994 87.1605V89.296C215.994 90.3027 215.568 91.1874 214.879 91.8128C214.879 92.9873 214.879 94.1771 214.879 95.4278C214.879 98.5395 214.846 101.361 214.764 103.848C214.731 104.809 214.698 105.663 214.666 106.41H238.954C238.97 101.407 239.036 96.3888 239.167 91.462C239.331 85.7114 239.413 79.8237 239.413 73.9664C239.413 71.9834 239.397 69.6649 239.364 66.9956C239.331 64.2805 239.315 61.5197 239.315 58.6978C239.315 55.8759 239.298 53.2981 239.266 50.8728C239.233 48.6916 239.2 46.907 239.167 45.4884H215.978C215.978 46.9375 215.945 48.3865 215.896 49.8051V49.7899Z" fill="white"/>
<path d="M239.331 58.6825C239.331 61.5044 239.348 64.2652 239.38 66.9803C239.413 69.6497 239.43 71.9682 239.43 73.9511C239.43 79.8084 239.348 85.6809 239.184 91.4467C239.052 96.3735 239.003 101.392 238.97 106.395H241.824C241.676 104.549 241.545 102.704 241.43 100.873C241.283 98.4174 241.201 95.9159 241.201 93.4296C241.102 92.1331 241.037 90.0129 241.004 86.9622C240.971 83.9115 240.906 80.4033 240.84 76.4069C240.758 72.38 240.725 68.2006 240.725 63.9907C240.725 59.7808 240.742 55.8302 240.774 52.2151C240.807 49.5763 240.889 47.3035 241.02 45.4426H239.151C239.184 46.8612 239.216 48.6458 239.249 50.8271C239.282 53.2523 239.298 55.8607 239.298 58.652L239.331 58.6825Z" fill="white"/>
<path d="M212.238 68.2312C211.927 68.2312 211.632 68.2312 211.32 68.2312C211.32 68.8871 211.336 69.5277 211.353 70.1684C211.5 70.1684 211.681 70.1684 211.812 70.1378C212.845 70.0158 213.829 70.2751 214.6 70.8395L214.567 67.499C213.928 67.9566 213.14 68.2312 212.255 68.2312H212.238Z" fill="white"/>
<path d="M216.01 43.9631C216.01 44.4664 215.994 44.9698 215.978 45.4732H239.167C239.167 45.3206 239.167 45.1376 239.167 44.9851L239.118 42.7428C239.118 42.6513 239.134 42.5598 239.151 42.4683H215.961C215.994 42.6666 216.027 42.8801 216.027 43.0937V43.9478L216.01 43.9631Z" fill="white"/>
<path d="M238.987 106.41H214.698C214.731 105.663 214.78 104.809 214.797 103.848C214.879 101.361 214.912 98.5242 214.912 95.4278C214.912 94.1923 214.912 93.0025 214.912 91.8127C214.288 92.3771 213.436 92.7432 212.468 92.789C212.288 92.8042 212.025 92.8195 211.681 92.8347C211.714 99.6225 211.648 106.761 211.205 108.912C211.156 109.156 211.353 109.385 211.615 109.385H239.003C239.003 109.278 238.97 109.186 238.97 109.08C238.97 108.195 238.97 107.295 238.987 106.395V106.41ZM214.436 109.324C214.436 109.324 214.436 109.232 214.452 109.186C214.452 109.232 214.452 109.278 214.436 109.324Z" fill="white"/>
<path d="M242.201 109.064C242.201 97.3803 242.628 85.7115 242.644 74.0274C242.66 63.9907 242.349 42.7276 242.349 42.7276C242.349 42.6208 242.414 42.5445 242.496 42.4988H239.134C239.134 42.5903 239.102 42.6818 239.102 42.7733L239.151 45.0156C239.151 45.1681 239.151 45.3359 239.151 45.5037H241.02C240.889 47.3646 240.807 49.6373 240.774 52.2761C240.742 55.8912 240.725 59.8113 240.725 64.0517C240.725 68.2921 240.758 72.4411 240.84 76.4679C240.922 80.4643 240.971 83.9878 241.004 87.0232C241.037 90.0739 241.102 92.1789 241.201 93.4907C241.201 95.977 241.283 98.4785 241.43 100.934C241.545 102.765 241.676 104.595 241.824 106.456H238.97C238.97 107.356 238.954 108.241 238.954 109.141C238.954 109.247 238.97 109.339 238.987 109.446H243.972C243.972 109.446 244.104 109.415 244.169 109.4H242.398C242.267 109.4 242.168 109.278 242.168 109.11L242.201 109.064Z" fill="white"/>
<path d="M245.235 108.149C244.825 103.207 244.497 98.265 244.366 93.3076C244.202 87.4504 243.562 54.1828 244.366 43.719C244.415 43.0479 243.841 42.4835 243.12 42.4835H242.496C242.496 42.4835 242.349 42.6056 242.349 42.7123C242.349 42.7123 242.677 63.9907 242.644 74.0122C242.628 85.6962 242.201 97.365 242.201 109.049C242.201 109.217 242.3 109.339 242.431 109.339H244.202C244.825 109.247 245.284 108.744 245.235 108.134V108.149Z" fill="white"/>
<path d="M200.102 76.3916C197.511 76.4221 195.117 76.4221 193.001 76.3916C190.804 76.3306 189.278 76.2696 188.294 76.1934H188.13C186.523 75.9798 185.228 75.8425 184.244 75.7815C182.981 75.69 180.012 75.0188 179.406 70.6259C179.324 70.1225 179.274 69.2683 179.274 68.0633C179.274 65.7753 180.324 64.3568 181.259 63.5331C182.636 62.1908 184.752 61.4739 187.737 61.3214C190 61.2146 192.132 61.1993 194.067 61.2603C196.019 61.3366 198.643 61.5197 201.857 61.8247C203.743 61.9925 205.826 62.0993 208.056 62.1603L207.974 55.5098C207.942 52.5049 207.892 49.8813 207.827 47.6239C207.827 46.8002 207.81 46.0985 207.794 45.4579H165.285C165.285 46.907 165.252 48.356 165.203 49.7746C165.138 51.605 165.088 53.4354 165.088 55.22C165.088 55.8302 165.105 56.5776 165.138 57.447C165.17 58.3622 165.203 59.1554 165.252 59.857L165.302 60.9248V64.6008C165.302 66.66 163.678 68.2159 161.53 68.2159C158.135 68.2159 155.019 68.1091 152.165 67.9108V70.3361C153.641 70.3056 155.068 70.2903 156.413 70.2598C158.496 70.2293 160.054 70.1835 161.087 70.1225C162.169 70.0005 163.202 70.2751 163.99 70.9005C164.842 71.5716 165.302 72.5478 165.302 73.6461V75.6137C165.302 76.9255 165.285 78.4814 165.252 80.2508C165.22 81.9286 165.22 83.454 165.252 84.7962C165.285 86.2301 165.318 87.008 165.318 87.1605V89.296C165.318 91.2331 163.809 92.6975 161.759 92.8042C161.202 92.85 160.119 92.911 157.348 92.911C155.757 92.911 153.986 92.9263 152.067 92.9568V93.6279C152.149 94.4363 152.182 95.6414 152.182 97.2735V102.399C152.182 103.924 152.182 105.266 152.132 106.425H178.799C178.651 105.175 178.438 103.939 178.176 102.688C177.618 99.9886 177.716 97.4108 178.471 95.0465C179.176 93.033 179.783 91.7823 180.488 90.9281C181.505 89.7688 182.817 89.0519 184.326 88.8384C184.736 88.7774 185.539 88.6248 187.097 88.213C188.59 87.8164 190.59 87.5113 193.198 87.3283C195.625 87.1453 198.216 87.0385 200.89 87.008C203.53 86.9622 205.924 86.9317 208.024 86.9317C208.155 86.9317 208.27 86.9317 208.401 86.9317C208.401 86.8707 208.401 86.8097 208.401 86.7487C208.368 84.0641 208.302 82.0049 208.237 80.6168C208.237 79.3661 208.237 77.917 208.204 76.2544C207.892 76.2544 207.564 76.2544 207.22 76.2696C205.022 76.3001 202.644 76.3459 200.086 76.4069L200.102 76.3916Z" fill="white"/>
<path d="M207.974 55.5251L208.056 62.1755C208.565 62.1755 209.057 62.2061 209.582 62.2061L209.532 60.1469C209.5 59.4299 209.45 58.6063 209.418 57.6758C209.385 56.7149 209.352 55.8912 209.352 55.22C209.352 53.3591 209.385 51.4525 209.467 49.5458C209.516 48.2035 209.549 46.8307 209.565 45.4579H207.794C207.794 46.0985 207.81 46.8002 207.827 47.6239C207.876 49.8813 207.925 52.5202 207.974 55.5098V55.5251Z" fill="white"/>
<path d="M208.417 86.7334C208.417 86.7334 208.417 86.8554 208.417 86.9165C208.844 86.9165 209.237 86.9165 209.565 86.9165C209.565 86.5809 209.549 85.925 209.516 84.9488C209.483 83.5302 209.483 81.8981 209.516 80.1287C209.549 78.6644 209.565 77.3526 209.565 76.1934C209.155 76.1934 208.696 76.2086 208.22 76.2238C208.237 77.8865 208.253 79.3355 208.253 80.5863C208.319 81.9591 208.384 84.0183 208.417 86.7182V86.7334Z" fill="white"/>
<path d="M208.04 86.9318C205.941 86.9318 203.546 86.9623 200.906 87.008C198.233 87.0385 195.642 87.1453 193.214 87.3284C190.607 87.5114 188.606 87.8012 187.114 88.213C185.556 88.6249 184.752 88.7774 184.342 88.8384C182.833 89.052 181.505 89.7536 180.504 90.9282C179.799 91.7671 179.192 93.0179 178.487 95.0465C177.733 97.4108 177.618 99.9734 178.192 102.688C178.454 103.939 178.668 105.175 178.815 106.426H152.149C152.182 105.282 152.198 103.939 152.198 102.399V97.2735C152.198 95.6414 152.165 94.4364 152.083 93.628V92.9568C151.509 92.9568 150.935 92.9721 150.328 92.9873C149.82 92.9873 149.344 93.0178 148.852 93.0331C148.852 93.4907 148.852 93.7805 148.852 93.7805C149.115 96.6939 148.852 108.82 148.852 108.82C148.852 109.156 149.131 109.415 149.492 109.415H181.587C181.948 109.415 182.243 109.125 182.226 108.805C181.948 104.336 180.357 99.6683 181.603 95.9312C183.178 91.1875 183.883 92.1484 187.934 91.0959C191.968 90.0587 202.53 89.9214 208.45 89.9062C208.45 88.8994 208.45 87.8927 208.417 86.9318C208.286 86.9318 208.171 86.9318 208.04 86.9318Z" fill="white"/>
<path d="M148.967 67.6667C148.967 68.5819 148.967 69.5124 148.967 70.4123C149.082 70.4123 149.18 70.4123 149.295 70.4123C150.296 70.3971 151.247 70.3666 152.198 70.3513V67.9261C151.64 67.8803 151.083 67.8498 150.558 67.804C150 67.7583 149.492 67.7125 148.984 67.6667H148.967Z" fill="white"/>
<path d="M165.318 43.9631C165.318 44.4665 165.302 44.9698 165.285 45.4732H207.794C207.794 44.3292 207.778 43.4445 207.778 42.8954V42.4835H165.252C165.285 42.6818 165.318 42.8954 165.318 43.1089V43.9631Z" fill="white"/>
<path d="M188.573 73.219C185.195 72.8224 183.03 73.463 182.554 70.2446C182.423 69.3904 182.161 66.8431 183.473 65.6228C185.113 64.0975 190.328 64.1585 193.903 64.311C197.003 64.4483 202.054 64.9669 208.089 65.1652L208.056 62.1908C205.826 62.1298 203.76 62.023 201.857 61.8552C198.643 61.5502 196.019 61.3672 194.067 61.2909C192.132 61.2146 190 61.2299 187.737 61.3519C184.752 61.4892 182.636 62.2213 181.259 63.5636C180.308 64.3721 179.274 65.7906 179.274 68.0939C179.274 69.2989 179.324 70.1531 179.406 70.6564C180.012 75.0494 182.981 75.7205 184.244 75.8121C185.211 75.8731 186.523 76.0103 188.13 76.2086H188.294C189.278 76.3002 190.804 76.3612 193.001 76.4222C195.133 76.4527 197.511 76.4527 200.102 76.4222C202.661 76.3764 205.039 76.3307 207.236 76.2849C207.581 76.2849 207.909 76.2849 208.22 76.2697C208.22 75.507 208.204 74.6986 208.188 73.8291V73.2952C201.792 73.4935 191.378 73.6003 188.557 73.2648L188.573 73.219Z" fill="white"/>
<path d="M207.794 45.4732H209.565C209.565 46.846 209.516 48.2188 209.467 49.5611C209.385 51.4677 209.352 53.3744 209.352 55.2353C209.352 55.9065 209.368 56.7301 209.418 57.6911C209.45 58.6215 209.5 59.4452 209.532 60.1621L209.582 62.2213C209.057 62.2213 208.565 62.1908 208.056 62.1908L208.089 65.1652C209.122 65.1957 210.188 65.2262 211.271 65.2262C211.14 55.7082 211.008 45.4579 211.008 42.9106C211.172 42.7428 211.271 42.6513 211.451 42.4835H207.778V42.8954C207.778 43.4445 207.778 44.3292 207.794 45.4732Z" fill="white"/>
<path d="M211.386 73.1427C210.533 73.1885 209.434 73.2342 208.188 73.2647V73.7986C208.204 74.668 208.22 75.4765 208.22 76.2391C208.696 76.2391 209.155 76.2239 209.565 76.2086C209.565 77.3526 209.549 78.6644 209.516 80.144C209.483 81.9134 209.483 83.5302 209.516 84.964C209.549 85.925 209.565 86.5809 209.565 86.9317C209.237 86.9317 208.844 86.9317 208.417 86.9317C208.417 87.8927 208.434 88.8994 208.45 89.9061C209.811 89.9061 210.91 89.9061 211.648 89.9061C211.615 85.9402 211.55 82.4015 211.517 80.449C211.484 78.6644 211.435 76.1018 211.386 73.1579V73.1427Z" fill="white"/>
<path d="M212.829 89.2807C212.829 89.2807 212.829 87.2215 212.829 87.191C212.665 86.5199 212.829 73.6918 212.829 73.6918C212.829 73.3562 212.517 73.0817 212.156 73.1122C211.943 73.1122 211.664 73.1427 211.386 73.1579C211.435 76.1018 211.468 78.6644 211.517 80.449C211.55 82.4015 211.615 85.9402 211.648 89.9061C211.861 89.9061 212.058 89.9061 212.206 89.9061C212.55 89.9061 212.829 89.6468 212.829 89.3112V89.2807Z" fill="white"/>
<path d="M211.008 42.9106C211.008 45.4579 211.14 55.7082 211.271 65.2262C211.582 65.2262 211.878 65.2262 212.206 65.2262C212.566 65.2262 212.845 64.9669 212.845 64.6314V61.0316C212.845 61.0316 212.599 57.1725 212.599 55.2658C212.599 51.483 212.796 47.7154 212.796 43.9478C212.796 43.8106 212.796 43.6733 212.829 43.536C212.829 43.5055 212.829 43.475 212.829 43.4445V43.0631C212.829 42.7276 212.55 42.4683 212.189 42.4683H211.451C211.271 42.6513 211.172 42.7276 211.008 42.9106Z" fill="white"/>
<path d="M145.704 79.7626C145.72 78.7407 145.736 77.6272 145.736 76.4069C144.523 76.4069 143.375 76.4069 142.292 76.3764C140.095 76.3154 138.57 76.2543 137.586 76.1781H137.422C135.814 75.9645 134.519 75.8273 133.535 75.7663C132.272 75.6747 129.304 75.0036 128.697 70.6106C128.615 70.092 128.566 69.2531 128.566 68.0481C128.566 65.7601 129.615 64.3415 130.55 63.5178C131.928 62.1755 134.043 61.4586 137.028 61.3061C139.291 61.1993 141.423 61.1841 143.358 61.2451C144.064 61.2756 144.867 61.3213 145.736 61.3671V55.342C145.736 52.5507 145.671 51.5592 145.638 51.2084V50.9186V45.4121H101.374V50.7813C101.424 51.3457 101.489 52.4744 101.489 55.3268V72.136C101.489 75.0951 101.473 77.6577 101.44 79.7931C101.407 81.8981 101.391 83.1641 101.391 83.5912V89.1892C101.62 90.562 101.899 92.0568 102.244 93.7499C102.67 95.7634 103.08 97.8226 103.457 99.9123C103.834 101.91 104.195 103.665 104.523 105.129C104.638 105.617 104.736 106.014 104.802 106.364H128.123C127.975 105.114 127.762 103.878 127.5 102.627C126.942 99.9275 127.04 97.3497 127.795 94.9854C128.5 92.972 129.107 91.7212 129.812 90.8671C130.829 89.7078 132.141 88.9909 133.65 88.7774C134.06 88.7163 134.863 88.5638 136.421 88.152C137.914 87.7554 139.914 87.4503 142.522 87.2673C143.539 87.191 144.588 87.1452 145.638 87.0842V83.5912C145.638 83.1489 145.654 81.8523 145.687 79.7016L145.704 79.7626Z" fill="white"/>
<path d="M148.934 76.3916C147.836 76.3916 146.753 76.4069 145.736 76.4069C145.736 77.6119 145.72 78.7406 145.704 79.7626C145.671 81.9133 145.654 83.2099 145.654 83.6522V87.1452C146.704 87.0994 147.77 87.069 148.869 87.0384C148.869 85.1623 148.869 83.6217 148.869 83.6217C148.902 83.0116 148.934 80.1744 148.951 76.3916H148.934Z" fill="white"/>
<path d="M145.654 51.2694C145.687 51.605 145.753 52.5965 145.753 55.4031V61.4281C146.737 61.4892 147.786 61.5654 148.967 61.6722C148.967 56.5471 148.918 52.2151 148.852 51.0406V45.5037H145.638V51.2999L145.654 51.2694Z" fill="white"/>
<path d="M158.873 86.9165C158.873 86.5809 158.84 85.925 158.824 84.9488C158.791 83.5302 158.791 81.8981 158.824 80.1287C158.856 78.6644 158.873 77.3526 158.873 76.1934C158.184 76.2086 157.397 76.2239 156.528 76.2391C155.15 76.2544 153.674 76.2849 152.165 76.3154C152.165 77.5967 152.149 78.7712 152.116 79.8389C152.083 81.9439 152.067 83.2099 152.067 83.637V86.947C153.986 86.9165 155.74 86.9012 157.348 86.9012C157.938 86.9012 158.446 86.9012 158.873 86.9012V86.9165Z" fill="white"/>
<path d="M152.182 55.3878V61.9162C154.232 62.0688 156.462 62.1755 158.873 62.2213L158.824 60.1621C158.791 59.4452 158.742 58.6215 158.709 57.6911C158.676 56.7301 158.643 55.9064 158.643 55.2353C158.643 53.3744 158.676 51.4677 158.758 49.561C158.807 48.2187 158.84 46.8459 158.856 45.4731H152.05V50.8423C152.1 51.4067 152.165 52.5354 152.165 55.3878H152.182Z" fill="white"/>
<path d="M148.967 61.6417C149.672 61.7027 150.394 61.7637 151.165 61.84C151.493 61.8705 151.837 61.8857 152.182 61.9162V55.3878C152.182 52.5354 152.116 51.4067 152.067 50.8423V45.4731H148.836V51.0101C148.902 52.1846 148.934 56.5165 148.951 61.6417H148.967Z" fill="white"/>
<path d="M152.132 79.8542C152.149 78.7865 152.165 77.612 152.182 76.3307C151.28 76.3459 150.378 76.3612 149.41 76.3917C149.246 76.3917 149.098 76.3917 148.934 76.3917C148.918 80.1593 148.885 83.0116 148.852 83.6218C148.852 83.6218 148.852 85.1624 148.852 87.0385C149.312 87.0385 149.754 87.008 150.214 87.008C150.853 87.008 151.476 86.9775 152.083 86.9775V83.6675C152.083 83.2404 152.1 81.9744 152.132 79.8695V79.8542Z" fill="white"/>
<path d="M142.522 87.3283C139.914 87.5114 137.914 87.8011 136.421 88.213C134.863 88.6248 134.06 88.7774 133.65 88.8384C132.124 89.0519 130.812 89.7688 129.812 90.9281C129.107 91.767 128.5 93.0178 127.795 95.0465C127.04 97.4108 126.926 99.9733 127.5 102.688C127.762 103.939 127.975 105.175 128.123 106.425H104.802C105.015 107.341 105.114 107.844 105.163 108.134C105.294 108.622 105.294 109.034 105.245 109.415H130.894C131.255 109.415 131.55 109.125 131.534 108.805C131.255 104.336 129.664 99.6683 130.911 95.9312C132.485 91.1874 133.19 92.1483 137.241 91.0959C139.062 90.623 142.194 90.3485 145.638 90.1807V87.1605C144.572 87.2063 143.522 87.2673 142.522 87.3436V87.3283Z" fill="white"/>
<path d="M137.881 73.219C134.502 72.8224 132.338 73.463 131.862 70.2446C131.731 69.3904 131.468 66.8431 132.78 65.6228C134.42 64.0975 139.636 64.1585 143.211 64.311C143.949 64.3415 144.818 64.4026 145.753 64.4636V61.3977C144.884 61.3366 144.08 61.2909 143.375 61.2756C141.44 61.1994 139.308 61.2146 137.044 61.3366C134.06 61.4739 131.944 62.2061 130.566 63.5484C129.632 64.3568 128.582 65.7753 128.582 68.0786C128.582 69.2836 128.631 70.1226 128.713 70.6412C129.32 75.0341 132.288 75.7053 133.551 75.7968C134.519 75.8578 135.831 75.9951 137.438 76.1934H137.602C138.586 76.2849 140.111 76.3459 142.309 76.4069C143.391 76.4222 144.539 76.4374 145.753 76.4374C145.753 75.507 145.753 74.5155 145.753 73.463C142.243 73.463 139.209 73.402 137.881 73.2495V73.219Z" fill="white"/>
<path d="M100.587 85.0708C100.718 85.5589 100.932 86.4589 101.26 88.4723C101.292 88.7164 101.358 88.9909 101.391 89.235V83.637C101.391 83.2099 101.407 81.9439 101.44 79.8389C101.473 77.6882 101.489 75.1409 101.489 72.1817V55.3726C101.489 52.5202 101.424 51.3915 101.374 50.8271V45.4579H145.638V43.0937C145.638 42.8801 145.671 42.6666 145.704 42.4683H98.7996C98.4388 42.4683 98.16 42.7276 98.16 43.0631V50.9949C98.2748 52.871 98.2912 62.7094 98.2748 71.0988C98.6028 72.9749 98.9636 74.8511 99.2424 76.6967C99.7016 79.4729 100.144 82.2642 100.587 85.0403V85.0708Z" fill="white"/>
<path d="M145.638 45.4732H148.852V43.0784C148.852 42.7428 149.131 42.4835 149.492 42.4835H145.704C145.671 42.6818 145.638 42.8954 145.638 43.1089V45.4732Z" fill="white"/>
<path d="M145.638 87.1452V90.1654C146.688 90.1196 147.77 90.0739 148.852 90.0281C148.852 89.0366 148.852 87.9994 148.852 87.0385C147.77 87.069 146.688 87.0995 145.638 87.1452Z" fill="white"/>
<path d="M145.753 73.4477C145.753 74.485 145.753 75.4917 145.753 76.4221C146.77 76.4221 147.852 76.4221 148.951 76.4069C148.951 75.4612 148.951 74.4697 148.951 73.4325C147.868 73.4325 146.786 73.4477 145.753 73.4477Z" fill="white"/>
<path d="M148.967 64.7076C148.967 63.6703 148.967 62.6484 148.967 61.6569C147.786 61.5654 146.737 61.4891 145.753 61.4128V64.4788C146.737 64.555 147.803 64.6313 148.967 64.7076Z" fill="white"/>
<path d="M162.136 89.2807C162.136 89.2807 162.136 87.2215 162.136 87.191C161.972 86.5199 162.136 73.6918 162.136 73.6918C162.136 73.3562 161.825 73.0817 161.464 73.1122C159.693 73.219 156.085 73.341 152.198 73.402C152.198 74.4392 152.198 75.4307 152.198 76.3459C153.723 76.3154 155.199 76.2849 156.56 76.2696C157.43 76.2696 158.2 76.2391 158.906 76.2239C158.906 77.3679 158.889 78.6796 158.856 80.1592C158.824 81.9286 158.824 83.5455 158.856 84.9793C158.889 85.9402 158.906 86.5961 158.906 86.947C158.479 86.947 157.971 86.947 157.38 86.947C155.79 86.947 154.018 86.9622 152.1 86.9927V89.9824C156.462 89.9061 160.3 89.9213 161.546 89.9061C161.89 89.9061 162.169 89.6468 162.169 89.3112L162.136 89.2807Z" fill="white"/>
<path d="M158.66 55.2353C158.66 55.9064 158.676 56.7301 158.725 57.6911C158.758 58.6215 158.807 59.4452 158.84 60.1621L158.889 62.2213C156.478 62.1755 154.248 62.084 152.198 61.9162V64.9211C155.002 65.0889 158.135 65.2415 161.513 65.2415C161.874 65.2415 162.153 64.9821 162.153 64.6466V61.0468C162.153 61.0468 161.907 57.1877 161.907 55.281C161.907 52.0016 162.038 48.7374 162.071 45.4731H158.889C158.889 46.8459 158.84 48.2187 158.791 49.561C158.709 51.4677 158.676 53.3744 158.676 55.2353H158.66Z" fill="white"/>
<path d="M152.083 86.9775C151.476 86.9775 150.853 86.9928 150.214 87.008C149.754 87.008 149.312 87.0386 148.852 87.0386C148.852 87.9995 148.852 89.052 148.852 90.0282C149.935 89.9977 151.017 89.9672 152.083 89.9519V86.9623V86.9775Z" fill="white"/>
<path d="M152.182 64.9212V61.9163C151.837 61.8858 151.493 61.8705 151.165 61.84C150.394 61.7638 149.656 61.7027 148.967 61.6417C148.967 62.6332 148.967 63.6552 148.967 64.6924C149.968 64.7687 151.05 64.8449 152.182 64.9059V64.9212Z" fill="white"/>
<path d="M148.934 76.3916C149.098 76.3916 149.246 76.3916 149.41 76.3916C150.361 76.3764 151.263 76.3611 152.182 76.3306C152.182 75.4001 152.182 74.4087 152.182 73.3867C151.116 73.402 150.033 73.4172 148.951 73.4325C148.951 74.4697 148.951 75.4612 148.951 76.4069L148.934 76.3916Z" fill="white"/>
<path d="M148.852 43.0784V45.4732H162.071C162.071 44.9698 162.104 44.4665 162.104 43.9631C162.104 43.8258 162.104 43.6885 162.136 43.5512C162.136 43.5207 162.136 43.4902 162.136 43.4597V43.0784C162.136 42.7428 161.858 42.4835 161.497 42.4835H149.492C149.131 42.4835 148.852 42.7428 148.852 43.0784Z" fill="white"/>
<path d="M95.0604 97.2735C95.0604 95.3668 95.0112 94.4821 94.962 94.055V93.7652V89.7536C94.9456 89.6315 94.9128 89.5095 94.8964 89.3875C94.5684 87.3588 94.4044 86.7029 94.3388 86.5046L94.2568 86.1233C93.814 83.2862 93.3548 80.449 92.8956 77.6119C92.4528 74.79 91.9608 71.9529 91.4196 69.1616C91.1244 67.7735 90.7472 65.7906 90.2716 63.2585L88.812 55.3268C88.32 52.5507 87.8772 50.0644 87.4508 47.8374C87.2868 46.9222 87.1392 46.129 87.008 45.4731H50.2228C50.1736 45.7935 50.108 46.1443 50.0424 46.5561C49.7472 48.3255 49.3864 50.5525 48.96 53.2371C48.55 55.9369 48.0744 58.8351 47.5332 61.8705C46.992 64.8754 46.4672 67.8193 45.9752 70.6869C45.4832 73.5698 45.024 76.1324 44.5976 78.3441C44.204 80.4795 43.9252 82.0049 43.7776 82.9201L43.6956 83.2556C43.3184 84.5369 42.8756 86.3978 42.3508 88.7621C41.826 91.1874 41.2848 93.7347 40.7108 96.3735L39.1364 103.451C38.874 104.687 38.6608 105.663 38.4968 106.395H55.52C55.6512 105.144 55.8316 103.71 56.0776 102.017C56.504 99.1801 57.0288 96.0532 57.6192 92.6365C58.2424 89.1739 58.8984 85.7114 59.5872 82.3252C60.276 78.9237 60.8828 75.812 61.424 73.0054C61.9488 70.2141 62.326 68.0328 62.5556 66.538C62.654 65.7448 62.9492 64.7686 63.4576 63.5026C64.3924 61.2298 66.3768 59.9791 68.8368 60.1011C69.952 60.1316 72.3628 60.5892 73.478 63.7771C73.9536 65.0737 74.2324 66.6295 74.3308 68.4904C74.3964 69.3751 74.5604 70.8699 74.8064 72.8681C75.0852 74.8663 75.3804 77.0018 75.7248 79.2135C76.0692 81.4405 76.3808 83.4387 76.6432 85.1928C76.9056 86.8097 77.0696 87.8011 77.1352 88.1367L77.2008 88.7316C77.2008 90.5925 76.184 92.1331 74.4128 92.9263L72.7236 93.6432H68.6564C68.558 94.5431 68.4268 95.5651 68.2956 96.7243C68.0332 99.0276 67.7872 101.361 67.5412 103.665C67.4428 104.656 67.3608 105.571 67.2952 106.38H94.9948C95.0276 105.236 95.044 103.909 95.044 102.353V97.2277L95.0604 97.2735Z" fill="white"/>
<path d="M95.9132 94.9397C95.5196 93.0025 95.208 91.2789 94.9456 89.7383V94.0397C95.0112 94.4516 95.0604 95.3515 95.0604 97.2582V102.383C95.0604 103.924 95.0604 105.266 95.0112 106.41H98.1928C98.1928 106.41 98.1928 106.38 98.1928 106.364C97.8484 104.839 97.4876 103.054 97.094 100.995C96.7168 98.936 96.3232 96.9379 95.8968 94.9549L95.9132 94.9397Z" fill="white"/>
<path d="M95.0112 106.822C95.0112 106.685 95.0112 106.548 95.0112 106.41H67.3116C67.3772 105.587 67.4592 104.687 67.5576 103.695C67.8036 101.377 68.0496 99.0581 68.312 96.7549C68.4432 95.5956 68.5744 94.5737 68.6728 93.6737H72.74L74.4292 92.9568C76.2004 92.1484 77.2172 90.623 77.2172 88.7621L77.1516 88.1673C77.086 87.8317 76.922 86.8402 76.6596 85.2234C76.3972 83.4692 76.0856 81.4711 75.7412 79.2441C75.4132 77.0171 75.1016 74.8969 74.8228 72.8987C74.5768 70.9005 74.4128 69.3904 74.3472 68.521C74.2652 66.6601 73.97 65.1042 73.4944 63.8077C72.3792 60.6197 69.9684 60.1622 68.8532 60.1316C66.3932 60.0096 64.4088 61.2604 63.474 63.5331C62.9656 64.8144 62.6704 65.7906 62.572 66.5686C62.3588 68.0786 61.9816 70.2446 61.4404 73.036C60.8992 75.8578 60.2924 78.9542 59.6036 82.3557C58.9148 85.742 58.2588 89.2045 57.6356 92.667C57.0288 96.0838 56.5204 99.2107 56.094 102.048C55.848 103.726 55.6676 105.175 55.5364 106.425H38.5132C38.6772 105.693 38.8904 104.702 39.1528 103.482L40.7272 96.4041C41.3012 93.7652 41.8588 91.2179 42.3672 88.7926C42.892 86.4131 43.3512 84.5675 43.712 83.2862L43.794 82.9506C43.9416 82.0354 44.2204 80.4948 44.614 78.3746C45.0404 76.1476 45.4996 73.6003 45.9916 70.7175C46.5 67.8498 47.0084 64.9059 47.5496 61.901C48.0908 58.8809 48.5664 55.9675 48.9764 53.2676C49.4028 50.5831 49.7636 48.3561 50.0588 46.5867C50.1244 46.1748 50.19 45.824 50.2392 45.5037H87.0244C87.1556 46.1596 87.2868 46.9528 87.4672 47.868C87.8936 50.0949 88.3528 52.5812 88.8284 55.3573L90.288 63.2891C90.7636 65.8211 91.1408 67.8193 91.436 69.1921C91.9608 71.9835 92.4528 74.8206 92.912 77.6425C93.3712 80.4796 93.8304 83.3167 94.2732 86.1538L94.3552 86.5352C94.4208 86.7335 94.5848 87.3893 94.9128 89.418C94.9292 89.5401 94.962 89.6621 94.9784 89.7841V83.698C94.9784 83.2557 94.9948 81.9592 95.0276 79.8084C95.0604 77.6882 95.0768 75.1714 95.0768 72.2428V71.6937C94.8964 70.7022 94.7324 69.7107 94.5356 68.704C93.4368 63.0145 90.4356 45.946 89.7796 42.9106C89.7304 42.6818 89.5828 42.5446 89.4188 42.5446H47.7464C47.5496 42.5446 47.3856 42.7276 47.3692 42.9716C47.1396 44.9241 41.8096 76.9561 40.5304 82.5083C39.2676 88.0452 35.594 104.366 35.102 107.02C34.9872 107.631 34.8724 108.225 34.7576 108.836C34.692 109.156 34.8724 109.476 35.1184 109.476H58.1932C58.4064 109.476 58.5704 109.247 58.5704 108.988C58.7344 101.331 64.622 74.9426 65.688 67.0261C65.8356 65.9431 66.5736 63.0603 68.722 63.167C70.2472 63.2281 70.9852 65.5466 71.1328 68.704C71.3296 72.7614 73.7568 87.3893 73.9208 88.8689C74.052 90.1807 72.084 90.7451 72.0512 90.7451C71.346 90.8366 67.2624 90.7756 66.7376 90.6841C66.5244 90.6536 65.8028 90.7603 65.77 91.0196C65.3108 95.016 64.0316 104.9 63.9332 108.942C63.9332 109.232 64.0972 109.461 64.3268 109.461H94.9948C94.962 109.247 94.9292 109.034 94.9292 108.805L94.9784 106.883L95.0112 106.822ZM55.3232 108.881C55.3232 108.881 55.3232 108.759 55.3232 108.714C55.3232 108.775 55.3232 108.836 55.3232 108.881Z" fill="white"/>
<path d="M98.16 108.82C98.16 108.82 98.1764 107.844 98.2092 106.41H95.0276C95.0276 106.548 95.0276 106.7 95.0276 106.822L94.9784 108.744C94.9784 108.973 95.0112 109.186 95.044 109.4H98.7668C98.4388 109.369 98.1764 109.125 98.1764 108.82H98.16Z" fill="white"/>
<path d="M94.9948 79.7626C94.962 81.9133 94.9456 83.2099 94.9456 83.6522V89.7383C95.208 91.2789 95.5196 92.9872 95.9132 94.9397C96.3396 96.9226 96.7332 98.9208 97.1104 100.98C97.504 103.039 97.8648 104.824 98.2092 106.349C98.2748 102.658 98.3568 95.8549 98.1764 93.7651C98.1764 93.7499 98.1764 91.6297 98.1764 89.3264C97.8484 87.6028 97.6024 86.2758 97.504 85.6656C96.7004 80.9524 95.9296 76.3001 95.0768 71.6326V72.1817C95.0768 75.1103 95.0604 77.6271 95.0276 79.7474L94.9948 79.7626Z" fill="white"/>
<path d="M101.456 106.41H101.522C101.506 106.319 101.489 106.227 101.473 106.136C101.473 106.227 101.473 106.319 101.473 106.41H101.456Z" fill="white"/>
<path d="M102.047 108.729C101.932 108.363 101.752 107.539 101.506 106.41H101.44C101.44 106.334 101.44 106.227 101.44 106.136C100.554 101.972 99.0456 94.1161 98.1436 89.3418C98.1436 91.6451 98.1436 93.7653 98.1436 93.7805C98.324 95.8702 98.242 102.658 98.1764 106.365C98.1764 106.38 98.1764 106.395 98.1764 106.41C98.1436 107.844 98.1272 108.82 98.1272 108.82C98.1272 109.125 98.3896 109.385 98.7176 109.4H101.67C101.932 109.4 102.129 109.049 102.03 108.714L102.047 108.729Z" fill="white"/>
</svg>
